<mxfile host="app.diagrams.net" modified="2024-05-02T15:36:34.560Z" agent="Mozilla/5.0 (Windows NT 10.0; Win64; x64) AppleWebKit/537.36 (KHTML, like Gecko) Chrome/122.0.0.0 YaBrowser/24.4.0.0 Safari/537.36" etag="AYyPunTMQSrrI9oNPigK" version="24.3.1" type="device">
  <diagram id="C5RBs43oDa-KdzZeNtuy" name="Page-1">
    <mxGraphModel dx="1289" dy="267" grid="1" gridSize="10" guides="1" tooltips="1" connect="1" arrows="1" fold="1" page="1" pageScale="1" pageWidth="827" pageHeight="1169" math="0" shadow="0">
      <root>
        <mxCell id="WIyWlLk6GJQsqaUBKTNV-0" />
        <mxCell id="WIyWlLk6GJQsqaUBKTNV-1" parent="WIyWlLk6GJQsqaUBKTNV-0" />
        <mxCell id="n3b6vqnYiXGYOqEfK6Ah-19" style="edgeStyle=orthogonalEdgeStyle;rounded=0;orthogonalLoop=1;jettySize=auto;html=1;entryX=0.5;entryY=0;entryDx=0;entryDy=0;" edge="1" parent="WIyWlLk6GJQsqaUBKTNV-1" source="n3b6vqnYiXGYOqEfK6Ah-0" target="n3b6vqnYiXGYOqEfK6Ah-1">
          <mxGeometry relative="1" as="geometry" />
        </mxCell>
        <mxCell id="n3b6vqnYiXGYOqEfK6Ah-0" value="Начало" style="rounded=1;whiteSpace=wrap;html=1;" vertex="1" parent="WIyWlLk6GJQsqaUBKTNV-1">
          <mxGeometry x="340" y="30" width="120" height="60" as="geometry" />
        </mxCell>
        <mxCell id="n3b6vqnYiXGYOqEfK6Ah-22" style="edgeStyle=orthogonalEdgeStyle;rounded=0;orthogonalLoop=1;jettySize=auto;html=1;entryX=0.5;entryY=0;entryDx=0;entryDy=0;" edge="1" parent="WIyWlLk6GJQsqaUBKTNV-1" source="n3b6vqnYiXGYOqEfK6Ah-1" target="n3b6vqnYiXGYOqEfK6Ah-2">
          <mxGeometry relative="1" as="geometry" />
        </mxCell>
        <mxCell id="n3b6vqnYiXGYOqEfK6Ah-1" value="Главная страница" style="rounded=0;whiteSpace=wrap;html=1;" vertex="1" parent="WIyWlLk6GJQsqaUBKTNV-1">
          <mxGeometry x="340" y="110" width="120" height="60" as="geometry" />
        </mxCell>
        <mxCell id="n3b6vqnYiXGYOqEfK6Ah-23" style="edgeStyle=orthogonalEdgeStyle;rounded=0;orthogonalLoop=1;jettySize=auto;html=1;entryX=0.5;entryY=0;entryDx=0;entryDy=0;" edge="1" parent="WIyWlLk6GJQsqaUBKTNV-1" source="n3b6vqnYiXGYOqEfK6Ah-2" target="n3b6vqnYiXGYOqEfK6Ah-3">
          <mxGeometry relative="1" as="geometry" />
        </mxCell>
        <mxCell id="n3b6vqnYiXGYOqEfK6Ah-2" value="Нажатие по кнопке &quot;Профиль&quot;" style="rounded=0;whiteSpace=wrap;html=1;" vertex="1" parent="WIyWlLk6GJQsqaUBKTNV-1">
          <mxGeometry x="340" y="190" width="120" height="60" as="geometry" />
        </mxCell>
        <mxCell id="n3b6vqnYiXGYOqEfK6Ah-24" style="edgeStyle=orthogonalEdgeStyle;rounded=0;orthogonalLoop=1;jettySize=auto;html=1;entryX=0.5;entryY=0;entryDx=0;entryDy=0;" edge="1" parent="WIyWlLk6GJQsqaUBKTNV-1" source="n3b6vqnYiXGYOqEfK6Ah-3" target="n3b6vqnYiXGYOqEfK6Ah-4">
          <mxGeometry relative="1" as="geometry" />
        </mxCell>
        <mxCell id="n3b6vqnYiXGYOqEfK6Ah-25" value="нет" style="edgeLabel;html=1;align=center;verticalAlign=middle;resizable=0;points=[];" vertex="1" connectable="0" parent="n3b6vqnYiXGYOqEfK6Ah-24">
          <mxGeometry x="-0.4039" y="-1" relative="1" as="geometry">
            <mxPoint as="offset" />
          </mxGeometry>
        </mxCell>
        <mxCell id="n3b6vqnYiXGYOqEfK6Ah-26" style="edgeStyle=orthogonalEdgeStyle;rounded=0;orthogonalLoop=1;jettySize=auto;html=1;entryX=0.5;entryY=0;entryDx=0;entryDy=0;" edge="1" parent="WIyWlLk6GJQsqaUBKTNV-1" source="n3b6vqnYiXGYOqEfK6Ah-3" target="n3b6vqnYiXGYOqEfK6Ah-8">
          <mxGeometry relative="1" as="geometry" />
        </mxCell>
        <mxCell id="n3b6vqnYiXGYOqEfK6Ah-27" value="да" style="edgeLabel;html=1;align=center;verticalAlign=middle;resizable=0;points=[];" vertex="1" connectable="0" parent="n3b6vqnYiXGYOqEfK6Ah-26">
          <mxGeometry x="0.0891" y="1" relative="1" as="geometry">
            <mxPoint as="offset" />
          </mxGeometry>
        </mxCell>
        <mxCell id="n3b6vqnYiXGYOqEfK6Ah-3" value="&lt;div style=&quot;&quot;&gt;&lt;span style=&quot;background-color: initial;&quot;&gt;&lt;font style=&quot;font-size: 11px;&quot;&gt;Проверка на пройденную регистрацию пользователя&lt;/font&gt;&lt;/span&gt;&lt;/div&gt;" style="rhombus;whiteSpace=wrap;html=1;align=center;" vertex="1" parent="WIyWlLk6GJQsqaUBKTNV-1">
          <mxGeometry x="330" y="270" width="140" height="120" as="geometry" />
        </mxCell>
        <mxCell id="n3b6vqnYiXGYOqEfK6Ah-29" style="edgeStyle=orthogonalEdgeStyle;rounded=0;orthogonalLoop=1;jettySize=auto;html=1;entryX=0.5;entryY=0;entryDx=0;entryDy=0;" edge="1" parent="WIyWlLk6GJQsqaUBKTNV-1" source="n3b6vqnYiXGYOqEfK6Ah-4" target="n3b6vqnYiXGYOqEfK6Ah-5">
          <mxGeometry relative="1" as="geometry" />
        </mxCell>
        <mxCell id="n3b6vqnYiXGYOqEfK6Ah-4" value="Заполнение модального окна регистрации" style="shape=parallelogram;perimeter=parallelogramPerimeter;whiteSpace=wrap;html=1;fixedSize=1;" vertex="1" parent="WIyWlLk6GJQsqaUBKTNV-1">
          <mxGeometry x="580" y="370" width="120" height="60" as="geometry" />
        </mxCell>
        <mxCell id="n3b6vqnYiXGYOqEfK6Ah-31" style="edgeStyle=orthogonalEdgeStyle;rounded=0;orthogonalLoop=1;jettySize=auto;html=1;entryX=0;entryY=0.5;entryDx=0;entryDy=0;" edge="1" parent="WIyWlLk6GJQsqaUBKTNV-1" source="n3b6vqnYiXGYOqEfK6Ah-5" target="n3b6vqnYiXGYOqEfK6Ah-6">
          <mxGeometry relative="1" as="geometry" />
        </mxCell>
        <mxCell id="n3b6vqnYiXGYOqEfK6Ah-35" value="нет" style="edgeLabel;html=1;align=center;verticalAlign=middle;resizable=0;points=[];" vertex="1" connectable="0" parent="n3b6vqnYiXGYOqEfK6Ah-31">
          <mxGeometry x="-0.4353" relative="1" as="geometry">
            <mxPoint as="offset" />
          </mxGeometry>
        </mxCell>
        <mxCell id="n3b6vqnYiXGYOqEfK6Ah-5" value="Правильность введенных данных" style="rhombus;whiteSpace=wrap;html=1;" vertex="1" parent="WIyWlLk6GJQsqaUBKTNV-1">
          <mxGeometry x="585" y="450" width="110" height="110" as="geometry" />
        </mxCell>
        <mxCell id="n3b6vqnYiXGYOqEfK6Ah-33" style="edgeStyle=orthogonalEdgeStyle;rounded=0;orthogonalLoop=1;jettySize=auto;html=1;entryX=1;entryY=0.25;entryDx=0;entryDy=0;" edge="1" parent="WIyWlLk6GJQsqaUBKTNV-1" source="n3b6vqnYiXGYOqEfK6Ah-6" target="n3b6vqnYiXGYOqEfK6Ah-4">
          <mxGeometry relative="1" as="geometry">
            <Array as="points">
              <mxPoint x="840" y="386" />
            </Array>
          </mxGeometry>
        </mxCell>
        <mxCell id="n3b6vqnYiXGYOqEfK6Ah-6" value="Окно с текстом говорящем об ошибке" style="rounded=1;whiteSpace=wrap;html=1;" vertex="1" parent="WIyWlLk6GJQsqaUBKTNV-1">
          <mxGeometry x="780" y="475" width="120" height="60" as="geometry" />
        </mxCell>
        <mxCell id="n3b6vqnYiXGYOqEfK6Ah-37" style="edgeStyle=orthogonalEdgeStyle;rounded=0;orthogonalLoop=1;jettySize=auto;html=1;entryX=1;entryY=0.5;entryDx=0;entryDy=0;" edge="1" parent="WIyWlLk6GJQsqaUBKTNV-1" source="n3b6vqnYiXGYOqEfK6Ah-7" target="n3b6vqnYiXGYOqEfK6Ah-8">
          <mxGeometry relative="1" as="geometry">
            <Array as="points">
              <mxPoint x="510" y="615" />
              <mxPoint x="510" y="399" />
            </Array>
          </mxGeometry>
        </mxCell>
        <mxCell id="n3b6vqnYiXGYOqEfK6Ah-7" value="Окно с текстом говорящем об успешной регистрации" style="rounded=1;whiteSpace=wrap;html=1;" vertex="1" parent="WIyWlLk6GJQsqaUBKTNV-1">
          <mxGeometry x="585" y="585" width="120" height="60" as="geometry" />
        </mxCell>
        <mxCell id="n3b6vqnYiXGYOqEfK6Ah-8" value="кнопка &quot;уже есть аккаунт&quot;" style="rounded=0;whiteSpace=wrap;html=1;" vertex="1" parent="WIyWlLk6GJQsqaUBKTNV-1">
          <mxGeometry x="160" y="369" width="120" height="60" as="geometry" />
        </mxCell>
        <mxCell id="n3b6vqnYiXGYOqEfK6Ah-39" style="edgeStyle=orthogonalEdgeStyle;rounded=0;orthogonalLoop=1;jettySize=auto;html=1;" edge="1" parent="WIyWlLk6GJQsqaUBKTNV-1" source="n3b6vqnYiXGYOqEfK6Ah-9">
          <mxGeometry relative="1" as="geometry">
            <mxPoint x="220" y="530" as="targetPoint" />
          </mxGeometry>
        </mxCell>
        <mxCell id="n3b6vqnYiXGYOqEfK6Ah-9" value="Заполнение модального окна авторизации" style="shape=parallelogram;perimeter=parallelogramPerimeter;whiteSpace=wrap;html=1;fixedSize=1;" vertex="1" parent="WIyWlLk6GJQsqaUBKTNV-1">
          <mxGeometry x="160" y="450" width="120" height="60" as="geometry" />
        </mxCell>
        <mxCell id="n3b6vqnYiXGYOqEfK6Ah-11" value="Правильность введенных данных" style="rhombus;whiteSpace=wrap;html=1;" vertex="1" parent="WIyWlLk6GJQsqaUBKTNV-1">
          <mxGeometry x="165" y="530" width="110" height="110" as="geometry" />
        </mxCell>
        <mxCell id="n3b6vqnYiXGYOqEfK6Ah-12" value="Окно с текстом говорящем об ошибке" style="rounded=1;whiteSpace=wrap;html=1;" vertex="1" parent="WIyWlLk6GJQsqaUBKTNV-1">
          <mxGeometry x="330" y="560" width="120" height="60" as="geometry" />
        </mxCell>
        <mxCell id="n3b6vqnYiXGYOqEfK6Ah-45" style="edgeStyle=orthogonalEdgeStyle;rounded=0;orthogonalLoop=1;jettySize=auto;html=1;entryX=0;entryY=0.5;entryDx=0;entryDy=0;" edge="1" parent="WIyWlLk6GJQsqaUBKTNV-1" source="n3b6vqnYiXGYOqEfK6Ah-13" target="n3b6vqnYiXGYOqEfK6Ah-14">
          <mxGeometry relative="1" as="geometry" />
        </mxCell>
        <mxCell id="n3b6vqnYiXGYOqEfK6Ah-13" value="Окно с текстом говорящем об успешной авторизации" style="rounded=1;whiteSpace=wrap;html=1;" vertex="1" parent="WIyWlLk6GJQsqaUBKTNV-1">
          <mxGeometry x="-17" y="560" width="120" height="60" as="geometry" />
        </mxCell>
        <mxCell id="n3b6vqnYiXGYOqEfK6Ah-46" style="edgeStyle=orthogonalEdgeStyle;rounded=0;orthogonalLoop=1;jettySize=auto;html=1;entryX=0.5;entryY=0;entryDx=0;entryDy=0;" edge="1" parent="WIyWlLk6GJQsqaUBKTNV-1" source="n3b6vqnYiXGYOqEfK6Ah-14" target="n3b6vqnYiXGYOqEfK6Ah-15">
          <mxGeometry relative="1" as="geometry" />
        </mxCell>
        <mxCell id="n3b6vqnYiXGYOqEfK6Ah-14" value="Модальное окно для перехода в профиль" style="rounded=1;whiteSpace=wrap;html=1;" vertex="1" parent="WIyWlLk6GJQsqaUBKTNV-1">
          <mxGeometry x="103" y="700" width="120" height="60" as="geometry" />
        </mxCell>
        <mxCell id="n3b6vqnYiXGYOqEfK6Ah-47" style="edgeStyle=orthogonalEdgeStyle;rounded=0;orthogonalLoop=1;jettySize=auto;html=1;entryX=0.5;entryY=0;entryDx=0;entryDy=0;" edge="1" parent="WIyWlLk6GJQsqaUBKTNV-1" source="n3b6vqnYiXGYOqEfK6Ah-15" target="n3b6vqnYiXGYOqEfK6Ah-17">
          <mxGeometry relative="1" as="geometry" />
        </mxCell>
        <mxCell id="n3b6vqnYiXGYOqEfK6Ah-15" value="Выход с данного модального окна" style="rounded=1;whiteSpace=wrap;html=1;" vertex="1" parent="WIyWlLk6GJQsqaUBKTNV-1">
          <mxGeometry x="340" y="770" width="120" height="60" as="geometry" />
        </mxCell>
        <mxCell id="n3b6vqnYiXGYOqEfK6Ah-16" value="Конец" style="rounded=1;whiteSpace=wrap;html=1;" vertex="1" parent="WIyWlLk6GJQsqaUBKTNV-1">
          <mxGeometry x="340" y="960" width="120" height="60" as="geometry" />
        </mxCell>
        <mxCell id="n3b6vqnYiXGYOqEfK6Ah-48" style="edgeStyle=orthogonalEdgeStyle;rounded=0;orthogonalLoop=1;jettySize=auto;html=1;entryX=0.5;entryY=0;entryDx=0;entryDy=0;" edge="1" parent="WIyWlLk6GJQsqaUBKTNV-1" source="n3b6vqnYiXGYOqEfK6Ah-17" target="n3b6vqnYiXGYOqEfK6Ah-16">
          <mxGeometry relative="1" as="geometry" />
        </mxCell>
        <mxCell id="n3b6vqnYiXGYOqEfK6Ah-17" value="Главная страница" style="rounded=0;whiteSpace=wrap;html=1;" vertex="1" parent="WIyWlLk6GJQsqaUBKTNV-1">
          <mxGeometry x="340" y="860" width="120" height="60" as="geometry" />
        </mxCell>
        <mxCell id="n3b6vqnYiXGYOqEfK6Ah-30" style="edgeStyle=orthogonalEdgeStyle;rounded=0;orthogonalLoop=1;jettySize=auto;html=1;entryX=0.46;entryY=0.019;entryDx=0;entryDy=0;entryPerimeter=0;" edge="1" parent="WIyWlLk6GJQsqaUBKTNV-1" source="n3b6vqnYiXGYOqEfK6Ah-5" target="n3b6vqnYiXGYOqEfK6Ah-7">
          <mxGeometry relative="1" as="geometry" />
        </mxCell>
        <mxCell id="n3b6vqnYiXGYOqEfK6Ah-34" value="да" style="edgeLabel;html=1;align=center;verticalAlign=middle;resizable=0;points=[];" vertex="1" connectable="0" parent="n3b6vqnYiXGYOqEfK6Ah-30">
          <mxGeometry x="-0.2407" y="-1" relative="1" as="geometry">
            <mxPoint x="-1" y="3" as="offset" />
          </mxGeometry>
        </mxCell>
        <mxCell id="n3b6vqnYiXGYOqEfK6Ah-38" style="edgeStyle=orthogonalEdgeStyle;rounded=0;orthogonalLoop=1;jettySize=auto;html=1;entryX=0.504;entryY=-0.027;entryDx=0;entryDy=0;entryPerimeter=0;" edge="1" parent="WIyWlLk6GJQsqaUBKTNV-1" source="n3b6vqnYiXGYOqEfK6Ah-8" target="n3b6vqnYiXGYOqEfK6Ah-9">
          <mxGeometry relative="1" as="geometry" />
        </mxCell>
        <mxCell id="n3b6vqnYiXGYOqEfK6Ah-40" style="edgeStyle=orthogonalEdgeStyle;rounded=0;orthogonalLoop=1;jettySize=auto;html=1;entryX=0.002;entryY=0.408;entryDx=0;entryDy=0;entryPerimeter=0;" edge="1" parent="WIyWlLk6GJQsqaUBKTNV-1" source="n3b6vqnYiXGYOqEfK6Ah-11" target="n3b6vqnYiXGYOqEfK6Ah-12">
          <mxGeometry relative="1" as="geometry" />
        </mxCell>
        <mxCell id="n3b6vqnYiXGYOqEfK6Ah-41" value="нет" style="edgeLabel;html=1;align=center;verticalAlign=middle;resizable=0;points=[];" vertex="1" connectable="0" parent="n3b6vqnYiXGYOqEfK6Ah-40">
          <mxGeometry x="0.1422" y="-1" relative="1" as="geometry">
            <mxPoint as="offset" />
          </mxGeometry>
        </mxCell>
        <mxCell id="n3b6vqnYiXGYOqEfK6Ah-42" style="edgeStyle=orthogonalEdgeStyle;rounded=0;orthogonalLoop=1;jettySize=auto;html=1;entryX=0.995;entryY=0.418;entryDx=0;entryDy=0;entryPerimeter=0;" edge="1" parent="WIyWlLk6GJQsqaUBKTNV-1" source="n3b6vqnYiXGYOqEfK6Ah-11" target="n3b6vqnYiXGYOqEfK6Ah-13">
          <mxGeometry relative="1" as="geometry" />
        </mxCell>
        <mxCell id="n3b6vqnYiXGYOqEfK6Ah-43" value="да" style="edgeLabel;html=1;align=center;verticalAlign=middle;resizable=0;points=[];" vertex="1" connectable="0" parent="n3b6vqnYiXGYOqEfK6Ah-42">
          <mxGeometry x="0.236" y="1" relative="1" as="geometry">
            <mxPoint as="offset" />
          </mxGeometry>
        </mxCell>
        <mxCell id="n3b6vqnYiXGYOqEfK6Ah-44" style="edgeStyle=orthogonalEdgeStyle;rounded=0;orthogonalLoop=1;jettySize=auto;html=1;entryX=1;entryY=0.167;entryDx=0;entryDy=0;entryPerimeter=0;" edge="1" parent="WIyWlLk6GJQsqaUBKTNV-1" source="n3b6vqnYiXGYOqEfK6Ah-12" target="n3b6vqnYiXGYOqEfK6Ah-9">
          <mxGeometry relative="1" as="geometry">
            <Array as="points">
              <mxPoint x="390" y="460" />
            </Array>
          </mxGeometry>
        </mxCell>
      </root>
    </mxGraphModel>
  </diagram>
</mxfile>
